<svg xmlns="http://www.w3.org/2000/svg" viewBox="0 0 32 32" fill="none">
  <rect x="4" y="6" width="24" height="20" rx="2" stroke="#06b6d4" stroke-width="1.5" fill="rgba(6,182,212,0.1)"/>
  <rect x="8" y="10" width="7" height="5" rx="1" stroke="#06b6d4" stroke-width="1" fill="none"/>
  <rect x="17" y="10" width="7" height="5" rx="1" stroke="#06b6d4" stroke-width="1" fill="none"/>
  <rect x="8" y="17" width="7" height="5" rx="1" stroke="#06b6d4" stroke-width="1" fill="none"/>
  <rect x="17" y="17" width="7" height="5" rx="1" stroke="#06b6d4" stroke-width="1" fill="none"/>
  <rect x="6" y="3" width="3" height="3" rx="0.5" fill="#06b6d4"/>
  <rect x="11" y="3" width="3" height="3" rx="0.5" fill="#06b6d4"/>
  <rect x="18" y="3" width="3" height="3" rx="0.5" fill="#06b6d4"/>
  <rect x="23" y="3" width="3" height="3" rx="0.5" fill="#06b6d4"/>
  <rect x="6" y="26" width="3" height="3" rx="0.5" fill="#06b6d4"/>
  <rect x="11" y="26" width="3" height="3" rx="0.5" fill="#06b6d4"/>
  <rect x="18" y="26" width="3" height="3" rx="0.5" fill="#06b6d4"/>
  <rect x="23" y="26" width="3" height="3" rx="0.5" fill="#06b6d4"/>
</svg>
